<mxfile host="app.diagrams.net" modified="2021-08-11T13:45:27.765Z" agent="5.0 (Windows NT 10.0; Win64; x64) AppleWebKit/537.36 (KHTML, like Gecko) Chrome/92.0.4515.131 Safari/537.36" etag="k3hHweKowUqEZONiK1gO" version="14.9.6" type="github">
  <diagram id="SqkDCDE35G_w5YHihRYM" name="第 1 页">
    <mxGraphModel dx="1360" dy="802" grid="1" gridSize="10" guides="1" tooltips="1" connect="1" arrows="1" fold="1" page="1" pageScale="1" pageWidth="827" pageHeight="1169" math="0" shadow="0">
      <root>
        <mxCell id="0" />
        <mxCell id="1" parent="0" />
        <mxCell id="5Ojcb_o-VIN4MNX5Xeh--1" value="" style="shape=image;verticalLabelPosition=bottom;verticalAlign=top;imageAspect=0;image=https://img2.baidu.com/it/u=819176161,2695934995&amp;fm=26&amp;fmt=auto&amp;gp=0.jpg" vertex="1" parent="1">
          <mxGeometry x="130" y="160" width="520" height="344" as="geometry" />
        </mxCell>
      </root>
    </mxGraphModel>
  </diagram>
</mxfile>
